<svg xmlns="http://www.w3.org/2000/svg" width="40" height="22" fill="none" viewBox="0 0 40 22"><path fill="url(#paint0_linear_60_4201)" fill-opacity=".9" d="M4.272 15.569V9.245q0-.595-.06-1.233A8 8 0 0 0 4 6.779h1.564q.187.18.332.527.144.349.212.774l.017.365.162-.365q.339-.672.918-1.062.578-.391 1.172-.391.247 0 .485.05.239.043.518.128l-.246 1.691a4 4 0 0 0-.536-.11 2.5 2.5 0 0 0-.399-.034 1.6 1.6 0 0 0-1.003.348q-.45.34-.714.987-.255.645-.255 1.555v4.326z"/><path fill="url(#paint1_linear_60_4201)" fill-opacity=".9" d="M11.771 19.768a6 6 0 0 1-.73-.085 4 4 0 0 1-.783-.204l.493-1.377q.289.075.536.101.246.035.484.035.62 0 1.003-.409.39-.4.689-1.139.297-.739.637-1.75l2.559-8.16h2.133l-3.11 8.602q-.4 1.02-.749 1.827a6.7 6.7 0 0 1-.756 1.386q-.417.57-.986.867-.57.306-1.42.305m1.318-4.404L9.919 6.78h2.21l1.444 4.684q.221.663.187 1.42a6 6 0 0 1-.212 1.419q-.187.663-.46 1.063"/><path fill="url(#paint2_linear_60_4201)" fill-opacity=".9" d="M24.296 15.773q-1.53 0-2.346-.918-.816-.919-.816-2.61V8.267h-1.47V7.145l1.47-.365V4.629L23.09 4v8.322q0 .866.374 1.394.374.526.978.527.28 0 .586-.052.315-.06.757-.203l.442 1.36q-.638.212-1.08.314-.433.11-.85.11m.986-7.506q-.46 0-.773-.221a1.9 1.9 0 0 1-.519-.57 3.4 3.4 0 0 1-.306-.697h2.44v1.488z"/><path fill="url(#paint3_linear_60_4201)" fill-opacity=".9" d="M32.113 15.773q-1.071 0-1.887-.391a3.9 3.9 0 0 1-1.36-1.054 4.6 4.6 0 0 1-.816-1.505 5.8 5.8 0 0 1-.272-1.768q0-1.394.561-2.397a3.86 3.86 0 0 1 1.539-1.538q.986-.545 2.235-.545.918 0 1.65.383.73.375 1.19 1.046.458.662.56 1.555.111.893-.23 1.913h-4.827q.179-.545.518-.918.35-.374.859-.374h1.76q.068-.57-.12-1.054a1.64 1.64 0 0 0-.57-.774 1.5 1.5 0 0 0-.926-.289q-.56 0-1.054.323-.492.315-.799.969-.297.655-.297 1.657 0 .986.314 1.709.323.723.893 1.114.57.39 1.309.39.585 0 1.139-.136.56-.144 1.292-.492l.527 1.41a7.4 7.4 0 0 1-1.675.595 7.2 7.2 0 0 1-1.513.17"/><defs><linearGradient id="paint0_linear_60_4201" x1="37.014" x2="3.014" y1="9.569" y2="9.569" gradientUnits="userSpaceOnUse"><stop stop-color="#fcedff"/><stop offset="1" stop-color="#fff"/></linearGradient><linearGradient id="paint1_linear_60_4201" x1="37.014" x2="3.014" y1="9.569" y2="9.569" gradientUnits="userSpaceOnUse"><stop stop-color="#fcedff"/><stop offset="1" stop-color="#fff"/></linearGradient><linearGradient id="paint2_linear_60_4201" x1="37.014" x2="3.014" y1="9.569" y2="9.569" gradientUnits="userSpaceOnUse"><stop stop-color="#fcedff"/><stop offset="1" stop-color="#fff"/></linearGradient><linearGradient id="paint3_linear_60_4201" x1="37.014" x2="3.014" y1="9.569" y2="9.569" gradientUnits="userSpaceOnUse"><stop stop-color="#fcedff"/><stop offset="1" stop-color="#fff"/></linearGradient></defs></svg>
